<?xml version="1.0" encoding="utf-8"?>
<!-- Generator: Adobe Illustrator 26.0.3, SVG Export Plug-In . SVG Version: 6.00 Build 0)  -->
<svg version="1.1" id="Layer_1" xmlns="http://www.w3.org/2000/svg" xmlns:xlink="http://www.w3.org/1999/xlink" x="0px" y="0px"
	 viewBox="0 0 1172.15 180" style="enable-background:new 0 0 1172.15 180;" xml:space="preserve">
<style type="text/css">
	.st0{fill:#4b974d;}
	.st1{fill-rule:evenodd;clip-rule:evenodd;fill:#4b974d;}
</style>
<g>
	<g>
		<path class="st0" d="M223.38,118.03c0-3.53,2.14-6.42,6.17-6.29c11.46,0.38,7.3,22.66,30.85,22.66c10.2,0,17.25-6.04,17.25-15.11
			c0-28.96-52.37-7.68-52.37-45.45c0-14.1,11.71-25.18,32.48-25.18c21.53,0,33.87,11.58,33.74,21.15c0,3.9-2.14,6.42-6.55,6.42
			c-11.83,0-6.42-21.53-27.57-21.53c-11.08,0-16.74,6.92-16.74,14.98c0,27.19,52.37,8.31,52.37,45.45
			c0,15.99-15.49,25.31-33.24,25.31C234.96,140.44,223.38,126.97,223.38,118.03z"/>
		<path class="st0" d="M367.28,136.92v0.5c0,1.13-1.01,1.76-2.64,1.76h-18.51c-1.64,0-2.64-0.63-2.64-1.76v-0.5
			c0-2.9,4.78-3.4,4.53-8.31l-1.26-24.93c-0.63-13.72-5.54-20.14-13.22-20.14c-8.06,0-13.22,6.55-13.22,15.61v29.59
			c0,4.91,5.16,5.29,5.16,8.18v0.38c0,1.13-1.13,1.89-2.77,1.89H303.2c-1.64,0-2.64-0.76-2.64-1.89v-0.38c0-2.9,5.04-3.27,5.04-8.18
			V61.88c0-5.29-5.29-5.67-5.29-8.18v-0.38c0-1.13,0.76-2.01,2.14-2.64l13.47-5.92c2.52-1.13,4.03-0.25,4.03,2.01l-0.13,39.15
			c3.78-5.29,10.07-8.44,17.63-8.44c11.83,0,22.66,7.55,23.79,26.57l1.51,24.42C363.13,133.52,367.28,134.02,367.28,136.92z"/>
		<path class="st0" d="M429.1,121.93c-1.13,7.43-9.57,18.51-25.56,18.51c-16.87,0-29.84-12.46-29.84-31.98
			c0-18,13.47-30.97,30.09-30.97c16.24,0,23.54,9.69,23.54,18.51c0,4.78-2.52,7.43-6.42,8.81l-30.47,11.21
			c3.15,8.56,9.57,13.85,18.51,13.85c7.93,0,13.6-4.16,16.12-9.19C426.46,118.91,429.35,119.42,429.1,121.93z M388.31,102.8
			c0,2.9,0.25,5.54,0.76,8.06l20.9-9.07c2.27-1.01,3.27-2.77,3.27-5.29c0-5.16-4.66-14.23-11.96-14.23
			C393.35,82.28,388.31,90.71,388.31,102.8z"/>
		<path class="st0" d="M451.77,136.79v-0.5c0-3.53,5.04-5.04,5.04-10.83V63.52c0-5.79-5.04-7.3-5.04-10.83v-0.5
			c0-1.51,1.26-2.39,3.02-2.39h27.7c1.76,0,3.02,0.88,3.02,2.39v0.5c0,3.53-5.67,5.04-5.67,10.83v58.67c0,4.15,1.89,8.18,6.17,8.18
			h13.09c10.58,0,12.59-17.88,18.51-17.88h1.76c1.89,0,2.9,1.26,2.52,3.15l-3.27,19.51c-0.5,2.77-1.64,4.03-4.41,4.03h-59.42
			C453.03,139.18,451.77,138.3,451.77,136.79z"/>
		<path class="st0" d="M525.8,108.84c0-18.63,15.99-31.35,33.99-31.35c18.88,0,34.5,13.09,34.5,31.6
			c0,18.38-15.23,31.35-33.62,31.35C541.41,140.44,525.8,127.1,525.8,108.84z M571.37,118.79c0-9.82-5.16-35.13-15.11-35.13
			c-6.04,0-8.18,5.54-8.18,15.74c0,10.2,5.04,34.88,15.23,34.88C569.23,134.27,571.37,128.23,571.37,118.79z"/>
		<path class="st0" d="M664.67,81.14v0.5c0,3.53-6.3,5.29-8.44,10.83l-16.24,43.44c-0.76,2.27-2.14,3.27-4.41,3.27H624.5
			c-2.39,0-3.4-1.01-4.53-3.27l-19.14-43.44c-2.39-5.16-6.67-7.3-6.67-10.83v-0.5c0-1.51,1.13-2.39,2.9-2.39h28.96
			c1.64,0,2.77,1.01,2.77,2.52v0.5c0,3.4-4.66,4.53-2.14,11.08l10.83,28.45L646.66,96c3.4-9.95-4.53-10.83-4.53-14.23v-0.5
			c0-1.51,1.13-2.52,2.9-2.52h16.74C663.53,78.75,664.67,79.63,664.67,81.14z"/>
		<path class="st0" d="M720.19,121.05c-0.25,6.92-9.06,19.39-25.56,19.39c-18.26,0-31.1-12.72-31.1-31.85
			c0-18.63,14.48-31.1,30.97-31.1s24.05,9.32,24.05,17.25c0,3.78-2.01,6.29-4.91,7.81l-25.05,14.1c3.27,5.16,8.18,8.18,14.35,8.18
			c5.41,0,10.32-2.52,12.59-5.54C717.3,117.53,720.32,118.28,720.19,121.05z M683.81,96.88c0,4.91,0.63,9.44,1.89,13.22l11.71-7.05
			c2.01-1.38,3.27-3.78,3.27-6.42c0-4.03-2.01-12.97-8.44-12.97C687.08,83.66,683.81,89.58,683.81,96.88z"/>
		<path class="st0" d="M725.23,125.58c0-5.67,3.9-8.06,8.94-8.06c12.59,0,8.31,17.25,18.76,17.25c3.78,0,6.8-1.89,6.8-6.92
			c0-16.49-33.36-6.8-33.36-31.22c0-11.21,10.83-19.14,26.56-19.14c15.99,0,26.44,6.92,26.44,15.11c0,4.41-3.78,7.68-8.44,7.68
			c-12.21,0-8.18-17-16.87-17c-3.9,0-5.92,3.53-5.92,7.18c0,17.25,32.23,8.18,32.23,31.35c0,10.45-9.95,18.51-27.45,18.51
			C737.06,140.32,725.23,134.4,725.23,125.58z"/>
		<path class="st0" d="M804.55,137.29v-0.38c0-2.52,4.78-3.27,4.78-8.18V60.24c0-4.66-4.78-5.54-4.78-8.18v-0.5
			c0-1.13,1.01-1.76,2.77-1.76h26.06c21.66,0,39.78,8.06,39.78,29.08c0,19.14-13.85,30.59-36.51,30.59h-12.09v19.26
			c0,4.91,5.16,5.67,5.16,8.18v0.38c0,1.13-1.13,1.89-2.64,1.89h-19.77C805.56,139.18,804.55,138.43,804.55,137.29z M836.65,103.17
			c13.09,0,20.9-8.44,20.9-20.65c0-17.75-11.96-26.44-24.17-26.44h-5.16c-2.39,0-3.65,1.76-3.65,4.78v37.27
			c0,3.15,1.51,5.04,4.91,5.04H836.65z"/>
		<path class="st0" d="M879.46,137.29v-0.38c0-2.9,4.66-3.27,4.66-8.18V62.38c0-5.29-4.66-6.29-4.66-8.56v-0.38
			c0-1.13,0.88-1.64,2.14-2.27l12.72-6.29c2.9-1.38,4.53,0.13,4.53,2.01v81.83c0,4.91,5.16,5.29,5.16,8.18v0.38
			c0,1.13-1.13,1.89-2.77,1.89h-19.14C880.47,139.18,879.46,138.43,879.46,137.29z"/>
		<path class="st0" d="M973.26,136.79c0,2.39-4.78,3.15-10.2,3.15c-6.42,0-9.57-1.39-10.07-7.55c-2.9,4.66-8.56,8.06-17.5,8.06
			c-13.72,0-23.54-6.67-23.54-19.01c-0.12-12.34,10.2-18.88,22.91-18.88c6.17,0,11.21,1.64,14.6,4.28l-0.25-2.52
			c-1.38-14.61-4.41-22.16-13.22-22.16c-11.71,0-9.19,15.23-17.12,15.23c-3.78,0-6.17-2.27-6.17-5.79c0-7.93,9.82-14.1,23.29-14.1
			c15.86,0,26.06,9.95,27.82,26.19l2.52,24.17C967.21,136.04,973.26,133.52,973.26,136.79z M950.97,122.94l-0.38-3.9
			c-0.5-7.18-5.29-11.71-11.96-11.71c-6.92,0-11.83,4.78-11.83,12.34c0,8.56,5.04,15.99,12.84,15.99
			C946.69,135.66,951.35,129.74,950.97,122.94z"/>
		<path class="st0" d="M1044.9,136.92v0.5c0,1.13-1.13,1.89-2.77,1.89h-18.38c-1.76,0-2.77-0.76-2.77-1.89v-0.5
			c0-2.77,4.78-3.27,4.53-8.31l-1.26-24.3c-0.63-14.35-5.54-20.77-13.22-20.77c-8.06,0-13.22,6.55-13.22,15.61v29.59
			c0,4.91,5.16,5.41,5.16,8.18v0.5c0,1.13-1.01,1.89-2.77,1.89h-19.51c-1.64,0-2.64-0.76-2.64-1.89v-0.5c0-2.77,5.04-3.27,5.04-8.18
			V94.99c0-5.54-5.67-5.67-5.67-8.44v-0.38c0-1.01,0.88-1.64,2.27-2.27l12.21-5.92c2.64-1.38,3.9,0.13,3.9,2.27v8.18
			c3.53-6.8,10.45-10.95,19.14-10.95c11.83,0,22.66,7.55,23.92,27.32l1.51,23.8C1040.62,133.64,1044.9,134.15,1044.9,136.92z"/>
		<path class="st0" d="M1056.99,120.05V84.92h-7.18c-1.26,0-2.14-0.88-2.14-2.14v-1.76c0-1.38,0.76-2.27,2.14-2.27h3.9
			c6.55,0,10.45-4.91,11.46-12.21c0.25-1.76,1.26-2.77,2.52-2.77h1.89c1.64,0,2.39,1.01,2.39,2.77l0.13,12.21h15.86
			c1.26,0,2.27,1.01,2.27,2.27v1.76c0,1.26-1.01,2.14-2.27,2.14h-15.86v35.25c0,6.04,3.02,9.32,7.18,9.32c5.29,0,8.18-2.9,8.94-6.55
			c1.13-2.01,4.16-1.64,4.16,0.63c0,8.43-6.42,16.87-17.75,16.87C1064.04,140.44,1056.99,133.64,1056.99,120.05z"/>
		<path class="st0" d="M1097.02,125.84c0-3.9,2.64-5.79,6.29-5.79c9.44,0,5.29,15.99,20.02,15.99c6.67,0,11.58-3.27,11.58-9.69
			c0-17-36.64-5.79-36.64-30.97c0-10.2,10.2-17.88,24.68-17.88c15.74,0,25.18,7.68,25.18,14.98c0,3.15-2.52,5.41-5.79,5.41
			c-8.81,0-5.41-15.86-18.63-15.86c-6.17,0-10.58,4.28-10.58,9.69c0,17.12,36.64,6.17,36.64,31.1c0,9.82-10.2,17.5-26.44,17.5
			C1106.84,140.32,1097.02,132.76,1097.02,125.84z"/>
	</g>
	<path class="st1" d="M158.03,114.33l-54.4,50.77l-54.39-50.77c-8.76-7.66-17.32-16.67-23.07-26.86
		c-4.55-8.07-7.31-16.88-6.74-26.22c0.55-8.81,3.98-16.83,9.02-23.99l0.02-0.04l0.02-0.03c10.65-13.14,26.8-20.58,43.77-18.34
		c9.87,1.31,18.67,5.74,25.61,12.46c-2.17,3.19-4.05,6.45-5.63,9.79v0c-14.97-16.93-40.37-15.24-55.1,2.67
		c-3.77,5.42-6.47,11.48-6.87,18.14c-0.11,1.8-0.05,3.6,0.17,5.39c1.85,15.2,14.9,29.2,25.96,38.87l0.12,0.11l47.11,43.97
		l47.12-43.97l0.12-0.11c5.45-4.76,10.68-9.95,15.14-15.67c5.22-6.68,9.77-14.66,10.82-23.2c0.22-1.79,0.28-3.59,0.17-5.39
		c-0.41-6.66-3.11-12.72-6.87-18.14c-15.89-19.32-44.2-19.76-58.43,1.68c-11.78,18.33-26.98,39.32-7.96,59.48
		c-7.42-23.28,0.51-35.15,12.59-53.22c13.66,21.04,11.79,46.49-5.6,76.34c-23.43-16.99-31.86-36.17-25.31-57.55
		c2.48-8.08,6.58-14.01,11.1-21.33c3.06-4.95,6.03-9.62,7.12-11.16c7.47-10.45,18.51-17.47,31.37-19.17
		c16.97-2.25,33.12,5.2,43.77,18.34l0.03,0.03l0.02,0.04c5.04,7.16,8.48,15.18,9.02,23.99c0.57,9.34-2.18,18.16-6.74,26.22
		C175.35,97.66,166.79,106.67,158.03,114.33z"/>
</g>
<g>
</g>
<g>
</g>
<g>
</g>
<g>
</g>
<g>
</g>
<g>
</g>
<g>
</g>
<g>
</g>
<g>
</g>
<g>
</g>
<g>
</g>
<g>
</g>
<g>
</g>
<g>
</g>
<g>
</g>
</svg>
